<svg width="267" height="150" viewBox="0 0 267 150" fill="none" xmlns="http://www.w3.org/2000/svg">
<path d="M94.3894 101.391C86.2509 88.8133 81.4536 73.7459 81.4536 58.1151V37.3965L73.0322 41.1339V76.1069C73.0322 109.742 95.2347 140.771 125.185 149.998C128.12 149.093 130.98 147.977 133.752 146.672C115.563 138.112 101.162 121.318 94.3894 101.391Z" fill="#E9E9E9"/>
<path d="M185.762 37.2681V58.1149C185.762 73.3505 181.206 88.0522 173.437 100.434C166.805 120.78 152.234 137.975 133.753 146.673C136.526 147.979 139.385 149.095 142.32 150C172.27 140.773 194.473 109.743 194.473 76.1085V41.1337L185.762 37.2681Z" fill="#E9E9E9"/>
<path d="M173.436 100.435C164.055 115.388 149.991 126.959 133.607 132.006C117.574 127.068 103.764 115.88 94.3896 101.391C101.162 121.318 115.563 138.112 133.752 146.673C152.234 137.975 166.804 120.78 173.436 100.435Z" fill="#00AC47"/>
<path d="M173.436 100.435C164.055 115.388 149.991 126.959 133.607 132.006C117.574 127.068 103.764 115.88 94.3896 101.391C101.162 121.318 115.563 138.112 133.752 146.673C152.234 137.975 166.804 120.78 173.436 100.435Z" fill="#D7D7D7"/>
<path d="M133.752 21.7933L142.319 17.9918L185.76 37.2681V23.142L133.606 0L81.4531 23.142V37.3964L125.185 17.9918L133.752 21.7933Z" fill="#E9E9E9"/>
<path d="M94.3889 101.391C91.6587 93.3601 90.1661 84.8227 90.1661 76.1084V41.1337L133.752 21.7932L125.185 17.9917L81.4531 37.3963V58.1149C81.4531 73.7457 86.2487 88.8114 94.3889 101.391Z" fill="#00AC47"/>
<path d="M94.3889 101.391C91.6587 93.3601 90.1661 84.8227 90.1661 76.1084V41.1337L133.752 21.7932L125.185 17.9917L81.4531 37.3963V58.1149C81.4531 73.7457 86.2487 88.8114 94.3889 101.391Z" fill="#00BF6A"/>
<path d="M133.753 21.7932L177.339 41.1337V76.1067C177.339 84.476 175.962 92.6823 173.437 100.434C181.206 88.0521 185.762 73.3505 185.762 58.1149V37.268L142.322 17.9917L133.753 21.7932Z" fill="#00AC47"/>
<path d="M133.753 21.7932L177.339 41.1337V76.1067C177.339 84.476 175.962 92.6823 173.437 100.434C181.206 88.0521 185.762 73.3505 185.762 58.1149V37.268L142.322 17.9917L133.753 21.7932Z" fill="#B6E2F8"/>
<path d="M179.419 41.9485V72.5722C179.419 102.022 159.978 129.193 133.753 137.273C107.527 129.193 88.0859 102.022 88.0859 72.5722V41.9485L133.753 21.6841L179.419 41.9485Z" fill="#2D84FA"/>
<path d="M131.158 124.987C122.205 121.408 114.067 114.854 107.963 106.24C100.954 96.3521 97.0957 84.3963 97.0957 72.5722V49.4822" stroke="black" stroke-width="4.32879" stroke-miterlimit="10"/>
</svg>
