<?xml version="1.0" encoding="utf-8"?>
<!-- Generator: Adobe Illustrator 26.0.1, SVG Export Plug-In . SVG Version: 6.00 Build 0)  -->
<svg version="1.1" id="Layer_1" xmlns="http://www.w3.org/2000/svg" xmlns:xlink="http://www.w3.org/1999/xlink" x="0px" y="0px"
	 viewBox="0 0 1080 1080" style="enable-background:new 0 0 1080 1080;" xml:space="preserve">
<style type="text/css">
	.st0{fill:none;stroke:#4285F4;stroke-width:4.3508;stroke-miterlimit:10;}
	.st1{fill:none;stroke:#AECBFA;stroke-width:4.3508;stroke-linecap:round;stroke-linejoin:round;}
	.st2{fill:#A8DAB5;}
	.st3{fill:#FFFFFF;}
	.st4{fill:#4285F4;}
	.st5{fill:#8AB4F8;}
	.st6{fill:#34A853;}
</style>
<circle class="st0" cx="550" cy="540" r="417.9"/>
<ellipse transform="matrix(0.4833 -0.8755 0.8755 0.4833 -188.6081 760.6411)" class="st1" cx="550.1" cy="540.1" rx="174.4" ry="412.6"/>
<ellipse transform="matrix(0.9937 -0.1123 0.1123 0.9937 -57.1917 65.1999)" class="st1" cx="550" cy="540.1" rx="412.6" ry="187.4"/>
<ellipse transform="matrix(0.8579 -0.5138 0.5138 0.8579 -199.3356 359.3706)" class="st1" cx="550" cy="540.1" rx="162.5" ry="412.7"/>
<path class="st2" d="M338.4,203h-70.2c-17.6,0-31.8-14.3-31.8-31.8l0,0c0-17.6,14.3-31.8,31.8-31.8h70.2c17.6,0,31.8,14.3,31.8,31.8
	l0,0C370.2,188.7,356,203,338.4,203z"/>
<ellipse transform="matrix(0.7071 -0.7071 0.7071 0.7071 -220.7384 547.0779)" class="st0" cx="550" cy="540" rx="417.9" ry="292.4"/>
<path class="st2" d="M720.5,896.9l15.1-26.1c1.2-2,3.3-3.3,5.7-3.3h104.4c2.3,0,4.5,1.2,5.6,3.3l15.1,26.1c1.2,2,1.2,4.5,0,6.5
	l-15.1,26.1c-1.2,2-3.3,3.3-5.6,3.3H741.2c-2.3,0-4.5-1.2-5.7-3.3l-15-26.2C719.3,901.4,719.3,898.9,720.5,896.9z"/>
<path class="st3" d="M693.2,363.6c14.6,0,26.4,11.8,26.4,26.4v300.1c0,14.6-11.8,26.4-26.4,26.4H406.8c-14.6,0-26.4-11.8-26.4-26.4
	V389.9c0-14.6,11.8-26.4,26.4-26.4H693.2z"/>
<circle class="st4" cx="550" cy="479.9" r="66.6"/>
<path class="st4" d="M416.8,660.7c0-26.8,16-51.1,40.6-61.6c59-25.7,126.1-25.7,185.1,0c24.7,10.5,40.6,34.8,40.6,61.6v19H416.8
	V660.7z"/>
<path class="st5" d="M406.8,751.4h286.5c33.8-0.1,61.3-27.5,61.3-61.3V389.9c-0.1-33.8-27.5-61.3-61.3-61.3H406.8
	c-33.8,0.1-61.3,27.5-61.3,61.3v300.1C345.5,723.9,372.9,751.3,406.8,751.4z M693.2,363.6c14.6,0,26.4,11.8,26.4,26.4v300.1
	c0,14.6-11.8,26.4-26.4,26.4H406.8c-14.6,0-26.4-11.8-26.4-26.4V389.9c0-14.6,11.8-26.4,26.4-26.4H693.2z"/>
<path class="st6" d="M231.1,621.2v57.9c0,55.6-36.7,107-86.2,122.2C95.5,786,58.8,734.8,58.8,679.1v-57.9l86.2-38.3L231.1,621.2z"/>
<circle class="st6" cx="867.3" cy="258.3" r="48.9"/>
</svg>
