<?xml version="1.0" encoding="utf-8"?>
<!-- Generator: Adobe Illustrator 25.4.1, SVG Export Plug-In . SVG Version: 6.00 Build 0)  -->
<svg version="1.1" id="Layer_1" xmlns="http://www.w3.org/2000/svg" xmlns:xlink="http://www.w3.org/1999/xlink" x="0px" y="0px"
	 viewBox="0 0 1920 1080" style="enable-background:new 0 0 1920 1080;" xml:space="preserve">
<style type="text/css">
	.st0{fill:#3BD897;}
	.st1{fill:none;stroke:#1E1313;stroke-width:3;stroke-linecap:square;stroke-miterlimit:10;}
	.st2{fill:#FFFFFF;}
	.st3{fill:#EAEAEA;}
	.st4{fill:#BFE2F7;}
	.st5{fill:#96EAC0;}
	.st6{fill-rule:evenodd;clip-rule:evenodd;fill:#FFFFFF;}
	.st7{fill-rule:evenodd;clip-rule:evenodd;fill:none;stroke:#000000;stroke-width:3;stroke-miterlimit:10;}
	.st8{fill:none;}
	.st9{fill:#00BB72;}
	.st10{fill:#4285F4;}
	.st11{fill:#D8D8D8;}
</style>
<g>
	<circle class="st0" cx="719.3" cy="883.7" r="68.9"/>
	<g>
		<line class="st1" x1="674.6" y1="906.1" x2="764" y2="906.1"/>
		<polygon class="st2" points="679.7,887.9 683.5,881.3 687.3,887.9 693.1,884.6 689.3,878 696.9,878 696.9,871.2 689.3,871.2 
			693.1,864.7 687.3,861.3 683.5,867.9 679.7,861.3 673.9,864.7 677.7,871.2 670.1,871.2 670.1,878 677.7,878 673.9,884.6 		"/>
		<polygon class="st2" points="709.7,884.6 715.5,887.9 719.3,881.3 723.1,887.9 728.9,884.6 725.1,878 732.7,878 732.7,871.2 
			725.1,871.2 728.9,864.7 723.1,861.3 719.3,867.9 715.5,861.3 709.7,864.7 713.5,871.2 705.9,871.2 705.9,878 713.5,878 		"/>
		<polygon class="st2" points="768.5,871.2 760.9,871.2 764.7,864.7 758.9,861.3 755.1,867.9 751.3,861.3 745.5,864.7 749.3,871.2 
			741.7,871.2 741.7,878 749.3,878 745.5,884.6 751.3,887.9 755.1,881.3 758.9,887.9 764.7,884.6 760.9,878 768.5,878 		"/>
	</g>
	<g>
		
			<rect x="683.2" y="706.3" transform="matrix(-1 -1.224647e-16 1.224647e-16 -1 1456.3113 1449.6533)" class="st3" width="89.8" height="37.1"/>
		<circle class="st4" cx="646" cy="724.8" r="18.6"/>
	</g>
	<path class="st2" d="M1137.1,924.5c0,13.4-10.8,24.2-24.2,24.2H806.1c-13.4,0-24.2-10.8-24.2-24.2V201c0-13.4,10.8-24.2,24.2-24.2
		h306.8c13.4,0,24.2,10.8,24.2,24.2V924.5z"/>
	<g>
		<path class="st3" d="M675.9,591.7c-4.1,0-7.9-0.8-11.4-2.3c-3.5-1.5-6.5-3.6-9-6.3c-2.5-2.7-4.5-5.8-5.9-9.3
			c-1.4-3.5-2.1-7.3-2.1-11.3c0-4,0.7-7.7,2.1-11.1c1.4-3.5,3.4-6.5,5.9-9.2c2.5-2.6,5.5-4.7,8.9-6.2c3.4-1.5,7.3-2.2,11.4-2.2
			c4.3,0,8.2,0.7,11.6,2.1c3.5,1.4,6.4,3.4,8.9,5.9c2.5,2.5,4.4,5.5,5.8,8.9c1.3,3.4,2,7.1,2,11c0,3-0.5,5.7-1.6,8.1
			c-1,2.4-2.5,4.3-4.3,5.8c-1.8,1.4-3.9,2.2-6.3,2.2c-2,0-3.8-0.5-5.2-1.5c-1.4-1-2.5-2.3-3.2-3.8c-1.1,1.6-2.5,2.9-4.1,3.9
			c-1.7,0.9-3.6,1.4-5.8,1.4c-2.5,0-4.7-0.6-6.6-1.9c-1.9-1.3-3.4-3-4.5-5.3c-1.1-2.2-1.6-4.8-1.6-7.8c0-3,0.6-5.6,1.7-7.8
			c1.1-2.2,2.7-4,4.6-5.3c1.9-1.3,4.1-1.9,6.5-1.9c1.8,0,3.5,0.4,4.8,1.1c1.4,0.7,2.5,1.7,3.3,2.9h0.4v-3h5.8v18.4
			c0,1.4,0.4,2.7,1.1,3.7c0.7,1.1,1.8,1.6,3.1,1.6c1.2,0,2.3-0.4,3.2-1.3c0.9-0.9,1.6-2.1,2.1-3.7c0.5-1.6,0.7-3.3,0.7-5.4
			c0-3.3-0.5-6.3-1.6-9.1c-1.1-2.8-2.6-5.2-4.7-7.2c-2-2.1-4.4-3.7-7.2-4.8c-2.8-1.1-5.8-1.7-9.1-1.7c-3.3,0-6.2,0.6-9,1.7
			c-2.7,1.1-5.1,2.7-7.1,4.8c-2,2.1-3.6,4.5-4.7,7.3c-1.1,2.8-1.7,5.9-1.7,9.2c0,3.4,0.6,6.5,1.8,9.4c1.2,2.9,2.8,5.4,4.8,7.5
			c2,2.1,4.4,3.8,7.1,5c2.7,1.2,5.6,1.8,8.7,1.8c2.4,0,4.5-0.2,6.4-0.7c1.9-0.5,3.7-1.1,5.2-2l2.2,5.2c-1.8,0.9-3.9,1.7-6.3,2.3
			C681.1,591.4,678.6,591.7,675.9,591.7z M674.8,571.9c1.4,0,2.6-0.3,3.7-1c1.1-0.7,2-1.7,2.7-3c0.7-1.4,1-3.1,1-5.1
			c0-2.1-0.3-3.8-1-5.2c-0.7-1.3-1.6-2.3-2.7-3c-1.1-0.7-2.4-1-3.7-1c-1.4,0-2.7,0.3-3.9,1c-1.2,0.7-2.1,1.7-2.7,3
			c-0.7,1.3-1,3.1-1,5.1c0,2,0.3,3.7,1,5.1c0.7,1.4,1.6,2.4,2.7,3C672.1,571.5,673.4,571.9,674.8,571.9z"/>
	</g>
	<path class="st5" d="M879.3,894.6h-51c-9.3,0-16.8-7.5-16.8-16.8v-51c0-9.3,7.5-16.8,16.8-16.8h51c9.3,0,16.8,7.5,16.8,16.8v51
		C896.1,887.1,888.6,894.6,879.3,894.6z"/>
	<path class="st5" d="M985,894.6h-51c-9.3,0-16.8-7.5-16.8-16.8v-51c0-9.3,7.5-16.8,16.8-16.8h51c9.3,0,16.8,7.5,16.8,16.8v51
		C1001.8,887.1,994.3,894.6,985,894.6z"/>
	<path class="st5" d="M1090.7,894.6h-51c-9.3,0-16.8-7.5-16.8-16.8v-51c0-9.3,7.5-16.8,16.8-16.8h51c9.3,0,16.8,7.5,16.8,16.8v51
		C1107.5,887.1,1100,894.6,1090.7,894.6z"/>
	<g>
		<g>
			<path class="st2" d="M930.8,651.1c1.9,0,1.9-3,0-3C928.8,648.1,928.8,651.1,930.8,651.1L930.8,651.1z"/>
		</g>
	</g>
	<circle class="st0" cx="1268.1" cy="474" r="59.5"/>
	<g>
		<path class="st6" d="M1269.3,455c-4,0-7.3,3.3-7.3,7.3s3.3,7.3,7.3,7.3c4,0,7.3-3.3,7.3-7.3C1276.6,458.3,1273.3,455,1269.3,455z
			 M1269.3,436.7c12,0,25.6,9,25.6,26.2c0,11.4-8.5,23.4-25.6,36c-17.1-12.6-25.6-24.6-25.6-36
			C1243.7,445.7,1257.3,436.7,1269.3,436.7z"/>
	</g>
	<line class="st7" x1="1243.7" y1="505.9" x2="1294.9" y2="505.9"/>
	<g>
		<path class="st8" d="M955.9,176.8H806.1c-13.4,0-24.2,10.8-24.2,24.2v723.5c0,13.4,10.8,24.2,24.2,24.2h306.8
			c13.4,0,24.2-10.8,24.2-24.2v-562H955.9V176.8z"/>
		<path class="st8" d="M1134.5,135.1h2.8v-32.5c0-28.4-23.1-51.6-51.6-51.6c-28.4,0-51.6,23.1-51.6,51.6v32.5h2.8H1134.5z"/>
		<path class="st8" d="M1085.8,216.3c-17.9,0-32.5,14.6-32.5,32.5c0,17.9,14.6,32.5,32.5,32.5c17.9,0,32.5-14.6,32.5-32.5
			C1118.3,230.9,1103.7,216.3,1085.8,216.3z"/>
		<path d="M1137.1,362.5v562c0,13.4-10.8,24.2-24.2,24.2H806.1c-13.4,0-24.2-10.8-24.2-24.2V201c0-13.4,10.8-24.2,24.2-24.2h149.8
			v-14.3H803.5c-19.7,0-35.6,15.9-35.6,35.6v729.3c0,19.7,15.9,35.6,35.6,35.6h312.1c19.7,0,35.6-15.9,35.6-35.6V513.2
			c2.4-0.2,4.2-2.2,4.2-4.6V411c0-2.4-1.9-4.4-4.2-4.6v-43.9H1137.1z"/>
		<path class="st9" d="M1115.5,162.5c19.7,0,35.6,15.9,35.6,35.6v19.7v84.9c2.4,0.2,4.2,2.2,4.2,4.6v44.2c0,2.4-1.9,4.4-4.2,4.6v6.4
			h64.6V135.1H1167h-2.8v-29.1c0-41.9-31-77.6-70.7-81.4c-22.4-2.1-43.9,5-60.4,20.1c-16.3,14.8-25.7,36-25.7,58v32.5h-2.8h-48.7
			v27.4h51.3H1115.5z M1034.2,102.6c0-28.4,23.1-51.6,51.6-51.6c28.4,0,51.6,23.1,51.6,51.6v32.5h-2.8h-97.4h-2.8V102.6z"/>
		<path class="st9" d="M1137.1,201c0-13.4-10.8-24.2-24.2-24.2h-103h-54v185.6h181.2v-128V201z"/>
		<path class="st5" d="M1009.9,176.8h103c13.4,0,24.2,10.8,24.2,24.2v33.5v128h14.1v-6.4c2.4-0.2,4.2-2.2,4.2-4.6v-44.2
			c0-2.4-1.9-4.4-4.2-4.6v-84.9v-19.7c0-19.7-15.9-35.6-35.6-35.6h-108.3h-51.3v14.3H1009.9z"/>
	</g>
	<g>
		<rect x="983.9" y="613.3" class="st3" width="204.8" height="54.3"/>
		<circle class="st10" cx="1241" cy="640.5" r="27.2"/>
		<circle class="st10" cx="1313.3" cy="640.5" r="27.2"/>
		<circle class="st4" cx="930.8" cy="640.5" r="27.2"/>
	</g>
	<g>
		<rect x="728.2" y="330.8" class="st10" width="123.6" height="131.2"/>
		<rect x="604.5" y="330.8" class="st11" width="123.6" height="131.2"/>
		<path class="st2" d="M689.1,412.7l-6.4,6.4l-16.3-16.3L650,419.1l-6.4-6.4l16.3-16.3l-16.3-16.3l6.4-6.4l16.3,16.3l16.3-16.3
			l6.4,6.4l-16.3,16.3L689.1,412.7z"/>
		<path d="M775.4,414l-18.9-18.9l-6.5,6.4l25.4,25.4l54.5-54.5l-6.4-6.4L775.4,414z"/>
	</g>
	<path class="st2" d="M1108.5,304.1h-22.7h-22.7l9.4-41.8c-8.2-4.6-13.7-13.4-13.7-23.4c0-14.9,12.1-26.9,26.9-26.9
		c14.9,0,26.9,12.1,26.9,26.9c0,10.5-6,19.5-14.7,24L1108.5,304.1z"/>
</g>
</svg>
