<?xml version="1.0" encoding="utf-8"?>
<!-- Generator: Adobe Illustrator 25.4.1, SVG Export Plug-In . SVG Version: 6.00 Build 0)  -->
<svg version="1.1" id="Layer_1" xmlns="http://www.w3.org/2000/svg" xmlns:xlink="http://www.w3.org/1999/xlink" x="0px" y="0px"
	 viewBox="0 0 1920 1080" style="enable-background:new 0 0 1920 1080;" xml:space="preserve">
<style type="text/css">
	.st0{fill:#3BD897;}
	.st1{fill:#EAEAEA;}
	.st2{fill:#BFE2F7;}
	.st3{fill:#FFFFFF;}
	.st4{fill:#4285F4;}
	.st5{fill:none;}
</style>
<g>
	<path class="st0" d="M728.9,325.4c1.4-6.2,1.2-12.3-0.2-18.6c5.3-1.3,10.5-2.6,15.8-3.9c1.6,6.1,2,12.4,1.5,18.7"/>
	<g>
		<rect x="766.3" y="858.3" class="st1" width="382.5" height="58"/>
		<rect x="1048.2" y="858.3" class="st2" width="100.7" height="58"/>
		<rect x="802.1" y="881.5" class="st3" width="210.4" height="11.6"/>
		<path class="st4" d="M1095.4,887.4l38.3,38.5l-15.9-0.1l11.9,23.1l-7.8,4.1l-12.9-23.9l-11.4,11.3l-2.7-52.8
			C1094.9,887.3,1095.3,887.2,1095.4,887.4z"/>
		<g>
			
				<rect x="1171" y="654.4" transform="matrix(-1 -1.224647e-16 1.224647e-16 -1 2406.4412 1339.7246)" class="st1" width="64.4" height="30.9"/>
			<circle class="st2" cx="1141.2" cy="669.9" r="15.5"/>
		</g>
		<g>
			<path class="st2" d="M912.4,347.2c0.1-0.8,0.2-1.5,0.3-2.3c1.5-6.8,5.6-11.2,12.2-13.3c1.6-0.5,3.2-0.7,4.9-0.7
				c5.7,0,11.3,0,17,0c5.1,0,9.4,1.8,12.8,5.5c2.5,2.7,4,5.8,4.5,9.4c0.1,1.1,0.3,2.2,0,3.3c-0.5,2-2.3,3.3-4.3,3.2
				c-2.1-0.1-3.8-1.6-4.1-3.7c-0.1-0.9-0.1-1.8-0.3-2.6c-0.9-3.8-4.4-6.6-8.3-6.6c-5.8,0-11.6,0-17.4,0c-4.5,0-8.2,3.5-8.6,8
				c-0.3,4.4,2.9,8.4,7.3,9.1c0.5,0.1,1,0.1,1.5,0.1c2.8,0,5.6,0,8.5,0c2.1,0,3.7,1.3,4.3,3.3c0.6,2.4-1,4.9-3.5,5.2
				c-0.1,0-0.2,0.1-0.2,0.1c-3.3,0-6.7,0-10,0c-0.1,0-0.2-0.1-0.3-0.1c-1.2-0.2-2.4-0.3-3.5-0.6c-6.6-2.1-10.7-6.5-12.2-13.3
				c-0.2-0.8-0.2-1.5-0.3-2.3C912.4,348.4,912.4,347.8,912.4,347.2z"/>
			<path class="st2" d="M958.7,365.4c-0.7-0.1-1.4-0.2-2.1-0.3c-6.7-1.5-11.2-5.6-13.3-12.1c-0.5-1.5-0.7-3-0.7-4.6
				c0-2.4,1.7-4.3,4.1-4.4c2.2-0.1,4.1,1.4,4.5,3.5c0.2,0.9,0.1,1.9,0.4,2.8c0.9,3.9,4.4,6.6,8.3,6.6c5.8,0,11.6,0,17.4,0
				c4.5,0,8.2-3.5,8.6-8c0.3-4.4-2.8-8.4-7.3-9.1c-0.5-0.1-1-0.1-1.5-0.1c-2.8,0-5.6,0-8.5,0c-2.1,0-3.7-1.3-4.3-3.3
				c-0.6-2.4,1-4.9,3.5-5.2c0.3,0,0.7-0.1,1-0.1c2.7,0,5.4,0,8.1,0c4.9,0,9.2,1.7,12.6,5.3c2.5,2.6,4,5.7,4.6,9.2
				c1.4,8.7-4,17.2-12.7,19.4c-1,0.2-2,0.3-3,0.5c-0.1,0-0.2,0.1-0.4,0.1C971.6,365.4,965.1,365.4,958.7,365.4z"/>
		</g>
		<g id="p4qBj8_00000131353369766187142810000003542168397594881719_">
			<g>
				<path class="st0" d="M710.3,367.3c-1.3,0.2-2.6,0.4-3.9,0.5c-24,2.2-46.7-14.4-51-39.2c-2.5-14.4,1-27.4,10.3-38.6
					c9.3-11.2,21.6-16.8,36.2-17.3c0-5.3,0-10.6,0-15.9c0.1,0,0.1-0.1,0.2-0.1c10.9,7.4,21.7,15,32.6,22.7
					c-10.8,7.7-21.7,15.2-32.7,22.8c0-5.5,0-10.8,0-16.2c-6.4,0.2-12.2,1.7-17.5,5c-8,5-13.4,12.1-15.6,21.3
					c-4.4,18.3,6.8,36.7,25.4,41.2c5,1.2,10.2,1.2,15.3,0.1c5.1-1.1,9.7-3.3,13.8-6.5c4.1-3.2,7.3-7.2,9.6-11.9
					c2.3-4.7,3.4-9.7,3.5-14.9c3.3,0,6.6,0,9.8,0c1.2,0,2.4,0,3.6,0"/>
			</g>
		</g>
		<circle class="st4" cx="1338.7" cy="500.4" r="50.2"/>
		<g>
			<path class="st3" d="M1361.6,503.4L1361.6,503.4c0.1-1,0.2-2,0.2-3s-0.1-2-0.2-3l0,0.1l7.5-5.9l-7.5-13l-8.8,3.6l0,0
				c-1.6-1.2-3.4-2.3-5.3-3.1h0l-1.4-9.4h-15l-1.4,9.4h0c-1.9,0.8-3.7,1.8-5.3,3.1l0,0l-8.9-3.6l-7.5,13l7.5,5.9l0-0.1
				c-0.1,1-0.2,2-0.2,3c0,1,0.1,2.1,0.2,3.1l0-0.1l-6.5,5.1l-1,0.8l7.5,12.9l8.9-3.5l-0.1-0.1c1.6,1.3,3.4,2.3,5.3,3.1h-0.1l1.4,9.5
				h14.9c0,0,0.1-0.6,0.2-1.3l1.2-8.1h0c1.9-0.8,3.7-1.8,5.3-3.1l-0.1,0.1l8.9,3.5l7.5-12.9c0,0-0.4-0.4-1-0.8L1361.6,503.4z
				 M1338.7,511.1c-5.9,0-10.8-4.8-10.8-10.8s4.8-10.8,10.8-10.8s10.8,4.8,10.8,10.8S1344.7,511.1,1338.7,511.1z"/>
		</g>
		<g>
			<path d="M1338.7,489.6c5.9,0,10.8,4.8,10.8,10.8s-4.8,10.8-10.8,10.8s-10.8-4.8-10.8-10.8S1332.8,489.6,1338.7,489.6
				 M1338.7,486.6c-7.6,0-13.8,6.2-13.8,13.8s6.2,13.8,13.8,13.8s13.8-6.2,13.8-13.8S1346.3,486.6,1338.7,486.6L1338.7,486.6z"/>
		</g>
		<g>
			<path class="st5" d="M839.2,592.7c-10.8-58.4-7.1-119.8,10.9-182.7H697.9c-11.9,31.2-18.1,64.6-18.1,99
				c0,29.5,4.6,58.3,13.4,85.6v-0.8h146.3C839.4,593.5,839.3,593.1,839.2,592.7z"/>
			<path class="st5" d="M939.8,231.8c-67.5,4.2-130.4,32.5-178.7,80.8c-23.8,23.8-42.7,51.1-56.3,80.8h150.4
				C880.5,316,920.3,257.5,939.8,231.8z"/>
			<path class="st5" d="M867.5,410.1c-18.5,62-22.4,122.5-11.8,179.9c0.2,1.3,0.5,2.6,0.7,3.8h193.9c0.3-1.4,0.6-2.8,0.8-4.1
				c10.6-57.3,6.6-117.7-11.9-179.6L867.5,410.1C867.5,410.1,867.5,410.1,867.5,410.1z"/>
			<path class="st5" d="M1033.9,393.4c-24.5-72.2-62.3-127.6-80.6-151.8c-18.2,24.2-56.1,79.7-80.6,151.8H1033.9z"/>
			<path class="st5" d="M1130.6,381.8c-63.5-15.9-112.1-76.8-120-145.6c-14.4-2.8-29.1-4.4-44-4.9c19.4,25.5,59.6,84.2,84.9,162
				h158.9c-6.4-14.1-14.1-27.6-22.9-40.5c-1.8,1.4-3.6,2.9-5.4,4.2C1166.7,368.6,1149.3,377.2,1130.6,381.8z"/>
			<path class="st5" d="M698.8,610.5c13.8,35.2,34.8,67.5,62.3,95c47.8,47.8,110,76,176.8,80.7c-48.2-54.1-80-113.1-94.9-175.7
				H698.8z"/>
			<path class="st5" d="M1217.4,410h-160.7c18,62.8,21.7,124.2,10.9,182.7c-0.1,0.4-0.1,0.7-0.2,1.1h155
				c8.6-27.1,13.1-55.6,13.1-84.8C1235.4,474.7,1229.2,441.2,1217.4,410z"/>
			<path class="st5" d="M860.1,610.5c14.9,59.7,46.2,116.1,93.2,168c47-51.9,78.3-108.2,93.2-168H860.1z"/>
			<path class="st5" d="M968.4,786.6c70.2-2.7,135.7-31.2,185.6-81.1c27.5-27.5,48.5-59.8,62.3-95h-152.6
				C1048.9,673.3,1016.9,732.4,968.4,786.6z"/>
			<path d="M1200,341.6c-4,4-8.1,7.7-12.5,11.3c8.8,12.9,16.4,26.4,22.9,40.5h-158.9c-25.3-77.8-65.5-136.5-84.9-162
				c14.9,0.5,29.6,2.1,44,4.9c-0.7-5.7-1-11.4-1.1-17.2c-17-3-34.3-4.5-51.9-4.5c-78.7,0-152.6,30.6-208.2,86.3
				S663.1,430.4,663.1,509c0,78.7,30.6,152.6,86.3,208.2c55.6,55.6,129.6,86.3,208.2,86.3s152.6-30.6,208.2-86.3
				c55.6-55.6,86.3-129.6,86.3-208.2C1252.1,448.3,1233.8,390.4,1200,341.6z M1051.2,589.7c-0.3,1.4-0.5,2.8-0.8,4.1H856.4
				c-0.3-1.3-0.5-2.5-0.7-3.8c-10.6-57.4-6.7-117.9,11.8-179.9c0,0,0,0,0-0.1h171.7C1057.7,472,1061.7,532.4,1051.2,589.7z
				 M1033.9,393.4H872.8c24.4-72.1,62.3-127.6,80.6-151.8C971.6,265.8,1009.5,321.2,1033.9,393.4z M761.2,312.6
				c48.3-48.3,111.2-76.6,178.7-80.8c-19.5,25.8-59.4,84.2-84.6,161.6H704.9C718.5,363.7,737.4,336.4,761.2,312.6z M693.2,594.6
				c-8.8-27.3-13.4-56.1-13.4-85.6c0-34.4,6.2-67.8,18.1-99h152.3c-18,62.8-21.7,124.2-10.9,182.7c0.1,0.4,0.1,0.7,0.2,1.1H693.2
				V594.6z M761.2,705.5c-27.5-27.5-48.5-59.8-62.3-95H843c14.9,62.6,46.7,121.5,94.9,175.7C871.1,781.5,809,753.3,761.2,705.5z
				 M953.4,778.5c-47-51.9-78.3-108.2-93.2-168h186.5C1031.7,670.2,1000.4,726.6,953.4,778.5z M1154.1,705.5
				c-49.9,49.9-115.5,78.5-185.6,81.1c48.4-54.3,80.4-113.4,95.3-176.1h152.6C1202.6,645.7,1181.6,678,1154.1,705.5z M1067.3,593.8
				c0.1-0.4,0.2-0.7,0.2-1.1c10.8-58.4,7.1-119.8-10.9-182.7h160.7c11.9,31.2,18.1,64.6,18.1,99c0,29.2-4.5,57.7-13.1,84.8H1067.3z"
				/>
			<path class="st4" d="M1200,341.6c3.3-3.3,6.5-6.8,9.5-10.4c23.9-28.3,39.4-64.9,41.9-103.5c0.2-3.7,0.4-7.3,0.4-11v-92.2
				l-59.3-22.2l-61.8-23.2l-2.7,1l-118.4,44.4V176v39.1v1.6c0,0.8,0,1.6,0,2.4c58.9,10.4,113.1,38.5,156.3,81.7
				C1178.6,313.5,1189.9,327.2,1200,341.6z"/>
			<path class="st4" d="M1010.7,236.3c7.9,68.7,56.5,129.7,120,145.6c18.7-4.7,36-13.2,51.4-24.7c1.8-1.4,3.6-2.8,5.4-4.2
				c-9.8-14.3-20.9-27.8-33.4-40.3C1114.3,272.8,1064.7,246.6,1010.7,236.3z"/>
			<path class="st2" d="M1154.1,312.6c12.5,12.5,23.7,26,33.4,40.3c4.3-3.5,8.5-7.3,12.5-11.3c-10-14.4-21.4-28.1-34.1-40.8
				c-43.2-43.2-97.4-71.3-156.3-81.7c0.1,5.8,0.5,11.5,1.1,17.2C1064.7,246.6,1114.3,272.8,1154.1,312.6z"/>
		</g>
		<g>
			<rect x="558.6" y="477" class="st1" width="148.3" height="50.6"/>
			<circle class="st4" cx="755.6" cy="502.3" r="25.3"/>
			<circle class="st2" cx="898.1" cy="502.3" r="25.3"/>
			<circle class="st4" cx="823" cy="502.3" r="25.3"/>
		</g>
		<path class="st0" d="M800.2,825.6c-5-6.3-9.7-11.6-13.7-17.5c-6.1-9-12.2-18.2-17.4-27.7c-6.5-11.8-11.1-24.3-10-38.1
			c1.2-14.9,8.4-26.1,21.8-32.8c13.7-6.8,27.5-6.3,40.8,1.4c10,5.8,16.1,14.6,18.4,25.9c1.8,8.7,0.9,17.2-1.7,25.6
			c-4.8,15.5-13.1,29.1-22.5,42.2c-4.7,6.5-9.8,12.7-14.7,19C800.9,824.1,800.7,824.6,800.2,825.6z M824.2,745.8
			c0-13.2-10.7-23.6-24.2-23.6c-13.6,0-24.3,10.5-24.3,23.8c0,13.1,11.1,24,24.3,23.9C813.4,769.8,824.2,759,824.2,745.8z"/>
		<circle class="st4" cx="1263.4" cy="669.9" r="15.5"/>
	</g>
	<g id="p4qBj8_00000069363783432351174640000015245177122688517555_">
		<g>
			<path class="st0" d="M639.4,191"/>
		</g>
	</g>
</g>
</svg>
