<svg width="2600" height="2600" viewBox="0 0 2600 2600" fill="none" xmlns="http://www.w3.org/2000/svg">
<rect width="2600" height="2600" fill="white"/>
<path d="M1209.26 499.64C1209.26 499.64 1207.73 168.138 1207.73 154.778C1207.73 141.667 1218.94 124.597 1233.89 130.039C1271.62 143.893 1314.27 181.249 1373.91 195.35C1433.55 209.452 1506.62 192.134 1518 192.134C1529.39 192.134 1541.79 215.142 1520.21 231.717C1498.63 248.292 1463.12 303.707 1386.99 335.126C1320.38 362.586 1293.37 367.039 1266.52 386.336C1255.3 394.5 1260.91 492.961 1260.91 492.961L1209.26 499.64Z" fill="#5186EC"/>
<path d="M1954.51 1017.91C1954.51 1017.91 1952.99 791.774 1952.99 782.661C1952.99 773.716 1964.13 762.072 1978.98 765.785C2016.44 775.235 2058.8 800.718 2118.04 810.337C2177.27 819.957 2249.84 808.143 2261.15 808.143C2272.45 808.143 2284.77 823.838 2263.34 835.145C2241.91 846.452 2206.64 884.255 2131.03 905.687C2064.88 924.42 2038.04 927.457 2011.38 940.621C2000.24 946.19 2005.81 1013.36 2005.81 1013.36L1954.51 1017.91Z" fill="#58A55C"/>
<path d="M453.704 1041.53C453.704 1041.53 452.86 807.961 453.029 799.354C453.535 763.576 501.801 790.578 505.177 791.422C541.46 800.704 587.364 815.049 628.711 822.137C670.058 829.225 763.721 837.157 772.328 837.832C780.935 838.507 788.023 850.657 773.678 857.745C759.333 864.833 647.95 912.087 605.084 929.132C562.218 946.176 501.464 956.977 501.464 956.977L500.789 1049.8L453.704 1041.53Z" fill="#58A55C"/>
<path d="M1545.41 1734.97H904.777C904.776 1734.68 904.774 1734.37 904.773 1734.05C904.76 1730.84 904.741 1726.13 904.72 1720.1C904.676 1708.03 904.619 1690.7 904.565 1669.62C904.457 1627.45 904.362 1570.29 904.416 1510.31C904.522 1390.3 905.221 1259.2 907.579 1214.26C909.942 1169.22 915.044 1089.61 919.557 1021.24C921.813 987.055 923.922 955.689 925.466 932.868C926.238 921.458 926.869 912.184 927.307 905.763C927.491 903.069 927.641 900.877 927.753 899.24L1222.81 877.984L1528.15 902.702L1545.41 1315.59V1734.97Z" fill="#FFC692" stroke="#CAAD96" stroke-width="8"/>
<path d="M1527.91 897.384C1528 898.644 1528.03 899.804 1528.03 900.809L1228.21 884.75C1228.06 884.742 1227.92 884.742 1227.78 884.75L927.953 900.818C927.953 900.81 927.953 900.802 927.953 900.794C927.935 898.378 928.209 894.654 929.455 889.742C930.531 885.639 934.054 879.725 940.68 870.837C946.389 863.179 954.07 853.728 963.726 841.847C965.114 840.14 966.542 838.383 968.011 836.574C991.35 807.827 1024.62 766.378 1066.85 705.744C1103.52 653.16 1130.2 610.085 1151.12 576.306C1161.18 560.06 1169.91 545.964 1177.78 533.995C1189.98 515.428 1200.06 502.064 1209.86 493.296C1219.52 484.65 1228.76 480.624 1239.44 480.47C1249.29 480.357 1257.09 483.595 1265.23 491.356C1273.59 499.326 1282.16 511.934 1293.27 530.464C1298.59 539.34 1304.46 549.507 1311.11 561.046C1332.09 597.416 1360.94 647.423 1405.45 713.654C1427.53 746.584 1456.28 787.601 1479.99 821.167C1487.92 832.403 1495.27 842.774 1501.61 851.722C1514.25 869.564 1522.88 881.747 1524.17 883.854C1526.62 888.007 1527.6 893.098 1527.91 897.384Z" fill="#FFC692" stroke="#CAAD96" stroke-width="8" stroke-linejoin="round"/>
<path d="M1130.27 1086.43L1130.27 1086.43L1130.3 1086.23L1130.31 1086.03C1130.71 1072.21 1136.58 1046.22 1151.51 1023.66C1166.33 1001.26 1189.87 982.488 1225.81 982.009C1261.72 981.531 1285.72 1000.04 1301.03 1021.55C1316.46 1043.22 1322.76 1067.57 1323.22 1077.51L1323.24 1077.92L1323.34 1078.32C1325.25 1085.8 1327.1 1101.68 1328.77 1121.67C1330.44 1141.53 1331.91 1165.08 1333.13 1187.68C1334.34 1210.28 1335.31 1231.89 1335.98 1247.86C1336.31 1255.85 1336.57 1262.42 1336.74 1266.99C1336.78 1268.11 1336.82 1269.11 1336.85 1269.98C1335.53 1269.97 1333.9 1269.96 1332.01 1269.95C1326.27 1269.92 1318.05 1269.88 1308.14 1269.84C1288.32 1269.74 1261.73 1269.64 1234.67 1269.56C1186.71 1269.43 1136.93 1269.41 1121.01 1269.83C1121.04 1256.37 1121.27 1251.53 1121.65 1243.59L1121.66 1243.29C1122.08 1234.51 1122.69 1221.9 1123.43 1190.51C1124.18 1158.88 1125.89 1132.84 1127.42 1114.71C1128.18 1105.65 1128.9 1098.56 1129.42 1093.75C1129.68 1091.35 1129.9 1089.51 1130.05 1088.28C1130.12 1087.66 1130.18 1087.2 1130.22 1086.89C1130.24 1086.73 1130.25 1086.62 1130.26 1086.54L1130.27 1086.46L1130.27 1086.44L1130.27 1086.43L1130.27 1086.43Z" fill="white" stroke="#CAAD96" stroke-width="8"/>
<path d="M1104.91 1446.93L1103.96 1447.76L1015.9 1375.18L1015.01 1374.45L1013.87 1374.3L905.85 1360.15C904.337 1335.66 905.191 1305.03 905.735 1285.53C905.863 1280.94 905.974 1276.96 906.033 1273.83L1236.17 1269L1543.12 1273.83L1545 1305.84V1346.16L1461.08 1375.33L1460.43 1375.56L1459.89 1375.99L1377.05 1442.31L1271.74 1372.9L1270.74 1372.24H1269.54V1376.24C1269.54 1372.24 1269.54 1372.24 1269.53 1372.24H1269.53H1269.52L1269.48 1372.24L1269.31 1372.24L1268.67 1372.24C1268.35 1372.24 1267.95 1372.24 1267.47 1372.24C1267.1 1372.24 1266.69 1372.24 1266.23 1372.24C1264.13 1372.25 1261.12 1372.26 1257.5 1372.28C1250.26 1372.33 1240.55 1372.42 1230.73 1372.6C1220.91 1372.78 1210.93 1373.05 1203.14 1373.45C1199.26 1373.66 1195.86 1373.9 1193.28 1374.19C1191.99 1374.33 1190.84 1374.49 1189.89 1374.68C1189.42 1374.78 1188.94 1374.9 1188.48 1375.05C1188.1 1375.17 1187.42 1375.42 1186.77 1375.89L1186.74 1375.92L1186.7 1375.95C1184.72 1377.48 1163.29 1396.09 1142.58 1414.12C1132.17 1423.17 1121.88 1432.14 1114.19 1438.84C1110.34 1442.2 1107.15 1444.98 1104.91 1446.93Z" fill="#E5DDD2" stroke="#CAAD96" stroke-width="8"/>
<path d="M901.647 1397.12C901.647 1397.12 973.008 1387.85 1012.04 1404.2C1057.1 1423.08 1102 1491.02 1108.7 1491.02C1122.93 1490.85 1152.25 1403.36 1239.02 1396.61C1325.29 1389.87 1359.97 1499.45 1378.73 1500.46C1392.97 1501.14 1425.97 1421.9 1465 1400.49C1505.54 1378.24 1549.09 1377.73 1549.09 1377.73V1341.15C1549.09 1341.15 1495.66 1335.92 1451.94 1356.15C1402.69 1379.08 1385.26 1425.1 1377.06 1425.61C1371.19 1425.95 1328.14 1351.26 1235.34 1354.3C1148.06 1357.17 1115.73 1420.89 1108.53 1421.06C1105.35 1421.23 1070.5 1379.25 1027.12 1361.89C975.521 1341.15 901.814 1350.76 901.814 1350.76L901.647 1397.12Z" fill="#6F6A67"/>
<path d="M322.639 2228.93L322.681 2228.77L322.711 2228.61C333.624 2167.49 339.057 2073.12 341.77 1994.22C343.129 1954.74 343.808 1919.05 344.147 1893.25C344.317 1880.34 344.402 1869.9 344.445 1862.69C344.465 1859.29 344.475 1856.6 344.481 1854.71L776.819 1762.3L1852.63 1763.98L2135.68 1856.74L2135.77 1857.97C2135.94 1860.53 2136.2 1864.32 2136.52 1869.2C2137.17 1878.96 2138.1 1893.08 2139.22 1910.55C2141.45 1945.48 2144.42 1993.77 2147.4 2047.22C2153.35 2154.15 2159.3 2281.6 2159.3 2364C2159.3 2368.63 2157.21 2376.57 2153.41 2386.31C2149.67 2395.88 2144.48 2406.69 2138.72 2416.84C2132.94 2427.01 2126.68 2436.39 2120.82 2443.17C2117.88 2446.56 2115.15 2449.19 2112.72 2450.94C2110.21 2452.74 2108.47 2453.3 2107.42 2453.3C2098.71 2453.3 1704.94 2454.96 1293.68 2456.69L1236.15 2456.93C804.85 2458.74 373.131 2460.56 362.257 2460.56C362.006 2460.56 361.347 2460.44 360.214 2459.65C359.097 2458.86 357.762 2457.57 356.25 2455.69C353.227 2451.92 349.883 2446.25 346.438 2438.91C339.567 2424.28 332.584 2403.66 327.016 2380.06C315.856 2332.76 310.577 2274.35 322.639 2228.93Z" fill="#FFC692" stroke="#CAAD96" stroke-width="8"/>
<path d="M1493.73 1711.32C1497.69 1711.91 1497.69 1711.91 1497.69 1711.91L1497.69 1711.91L1497.69 1711.9L1497.7 1711.87L1497.71 1711.74L1497.79 1711.24C1497.85 1710.8 1497.95 1710.16 1498.07 1709.34C1498.32 1707.7 1498.66 1705.35 1499.08 1702.51C1499.91 1696.81 1501.02 1689.12 1502.12 1681.15C1503.22 1673.19 1504.32 1664.92 1505.14 1658.08C1505.93 1651.4 1506.5 1645.73 1506.46 1643.16C1506.4 1638.7 1508.75 1635.06 1512.58 1632.36C1516.46 1629.62 1521.51 1628.17 1525.72 1628.17C1531.72 1628.17 1590.08 1628.33 1646.94 1628.5C1675.37 1628.59 1703.43 1628.67 1724.37 1628.73L1749.62 1628.81L1755.74 1628.83L1781.81 1795.9L1781.6 1795.9C1778.34 1795.83 1773.55 1795.73 1767.4 1795.6C1755.11 1795.34 1737.42 1794.98 1715.82 1794.55C1672.62 1793.69 1613.79 1792.55 1551.27 1791.47C1426.26 1789.3 1286.37 1787.31 1227.19 1788.05C1168.07 1788.8 1030.24 1791.54 907.212 1794.09C845.693 1795.36 787.868 1796.59 745.423 1797.5C724.201 1797.96 706.823 1798.33 694.751 1798.59C688.715 1798.72 684.006 1798.82 680.805 1798.89L680.703 1798.9L707.245 1632.01C708.727 1632.01 710.667 1632 713.015 1631.99C718.863 1631.96 727.239 1631.93 737.35 1631.89C757.572 1631.81 784.733 1631.71 812.493 1631.65C868.119 1631.52 925.86 1631.53 935.289 1632.02L935.306 1632.02L935.323 1632.02C952.497 1632.78 957.667 1643.08 957.667 1648.18C957.667 1650.44 958.263 1655.49 959.066 1661.4C959.889 1667.44 960.983 1674.77 962.075 1681.83C963.167 1688.89 964.259 1695.72 965.078 1700.77C965.487 1703.3 965.828 1705.38 966.067 1706.84C966.187 1707.56 966.281 1708.13 966.345 1708.52L966.418 1708.97L966.437 1709.08L966.442 1709.11L966.443 1709.12L966.443 1709.12C966.443 1709.12 966.443 1709.12 970.389 1708.46L966.443 1709.12L966.979 1712.35L970.249 1712.46L1051.66 1715.32L1051.8 1715.32L1051.93 1715.32L1136.25 1712.46L1139.46 1712.35L1140.05 1709.19L1136.12 1708.46C1140.05 1709.19 1140.05 1709.19 1140.05 1709.19L1140.05 1709.19L1140.05 1709.18L1140.06 1709.15L1140.07 1709.05L1140.15 1708.65C1140.21 1708.3 1140.31 1707.78 1140.43 1707.12C1140.67 1705.8 1141.01 1703.89 1141.42 1701.56C1142.24 1696.9 1143.33 1690.54 1144.43 1683.72C1146.59 1670.25 1148.84 1654.53 1148.84 1647C1148.84 1646.21 1148.84 1645.45 1148.83 1644.72C1148.82 1642.05 1148.82 1639.78 1148.93 1637.74C1149.08 1635.14 1149.42 1633.36 1149.98 1632.11C1150.47 1631 1151.17 1630.2 1152.41 1629.58C1153.78 1628.88 1155.98 1628.32 1159.55 1628.16L1159.56 1628.16L1159.57 1628.16C1164.69 1627.92 1200.16 1628 1236.28 1628.1C1239.49 1628.11 1242.71 1628.12 1245.9 1628.13C1278.51 1628.23 1309.31 1628.32 1315.48 1628.16L1315.49 1628.16L1315.49 1628.16C1323.64 1627.93 1327.44 1629.71 1329.45 1632.15C1331.67 1634.83 1332.73 1639.38 1332.73 1647C1332.73 1649.54 1333.32 1654.95 1334.12 1661.31C1334.95 1667.79 1336.04 1675.58 1337.13 1683.07C1338.23 1690.57 1339.32 1697.79 1340.14 1703.13C1340.54 1705.8 1340.89 1708 1341.13 1709.53L1341.21 1710.07C1341.29 1710.59 1341.35 1711 1341.4 1711.31L1341.48 1711.78L1341.49 1711.9L1341.5 1711.93L1341.5 1711.94L1341.5 1711.94C1341.5 1711.94 1341.5 1711.94 1345.45 1711.32L1341.5 1711.94L1342.05 1715.45L1345.61 1715.31L1418.14 1712.47L1493.58 1715.31L1497.16 1715.45L1497.69 1711.91L1493.73 1711.32Z" fill="#E5DDD2" stroke="#CAAD96" stroke-width="8"/>
<path d="M2229 1392C2233.5 1390 2231.45 1440.14 2227.06 1490.26L2229 1392ZM2229 1392C2197.44 1366.35 1987.59 1306.82 1987.59 1306.82L2229 1392ZM2223.07 1489.91L2223.07 1489.91C2219.88 1526.81 2214.63 1562.26 2210.18 1588.49C2207.96 1601.61 2205.93 1612.41 2204.46 1619.93C2203.73 1623.69 2203.13 1626.62 2202.72 1628.62C2202.63 1629.06 2202.55 1629.46 2202.48 1629.81L2006.86 1730.2L1751.7 1664.37C1751.66 1664.19 1751.62 1663.99 1751.58 1663.78C1751.17 1661.81 1750.59 1658.94 1749.87 1655.3C1748.43 1648.04 1746.44 1637.76 1744.25 1625.71C1739.87 1601.59 1734.7 1570.43 1731.5 1542.13C1730.79 1535.83 1730.11 1529.79 1729.46 1524C1724.62 1481.23 1721.33 1452.09 1719.72 1432.56C1718.81 1421.45 1718.46 1413.61 1718.65 1408.21C1718.74 1405.5 1718.97 1403.54 1719.29 1402.15C1719.51 1401.17 1719.74 1400.62 1719.89 1400.33C1719.96 1400.3 1720.04 1400.25 1720.13 1400.21C1720.66 1399.92 1721.46 1399.55 1722.54 1399.08C1724.69 1398.15 1727.75 1396.94 1731.61 1395.48C1739.33 1392.58 1750.1 1388.77 1762.9 1384.37C1788.5 1375.58 1822.12 1364.45 1855.6 1353.52C1889.07 1342.6 1922.37 1331.88 1947.3 1323.88C1959.77 1319.89 1970.14 1316.57 1977.4 1314.26C1981.03 1313.1 1983.88 1312.2 1985.82 1311.58C1986.57 1311.34 1987.18 1311.15 1987.65 1311C1987.98 1311.09 1988.38 1311.21 1988.85 1311.34C1990.39 1311.78 1992.66 1312.43 1995.56 1313.27C2001.35 1314.95 2009.66 1317.37 2019.73 1320.36C2039.88 1326.33 2067.07 1334.57 2095.24 1343.6C2123.42 1352.63 2152.53 1362.46 2176.54 1371.61C2188.55 1376.18 2199.24 1380.57 2207.88 1384.6C2216.6 1388.67 2222.94 1392.23 2226.48 1395.1L2226.68 1395.27C2226.88 1396.21 2227.08 1397.68 2227.22 1399.75C2227.58 1404.75 2227.61 1412.23 2227.36 1421.48C2226.87 1439.92 2225.26 1464.9 2223.07 1489.91ZM1719.61 1400.5C1719.61 1400.5 1719.62 1400.5 1719.64 1400.48C1719.62 1400.5 1719.61 1400.5 1719.61 1400.5ZM2226.45 1394.4C2226.45 1394.4 2226.45 1394.41 2226.45 1394.42C2226.45 1394.41 2226.45 1394.4 2226.45 1394.4Z" fill="#FFC692" stroke="#CAAD96" stroke-width="8"/>
<path d="M481.888 1344.61L483.494 1344.12L485.044 1344.6C486.82 1345.15 489.426 1345.95 492.745 1346.98C499.382 1349.03 508.869 1351.96 520.268 1355.5C543.067 1362.57 573.511 1372.03 604.096 1381.61C634.683 1391.19 665.403 1400.88 688.757 1408.41C700.436 1412.18 710.257 1415.39 717.292 1417.78C720.813 1418.98 723.61 1419.96 725.584 1420.69C726.35 1420.98 726.97 1421.21 727.448 1421.41C727.648 1422.55 727.844 1424.31 728.017 1426.7C728.379 1431.71 728.607 1439.02 728.669 1448.1C728.793 1466.25 728.248 1491.24 726.817 1518.51C725.305 1547.17 722.237 1577.65 719.543 1600.98C718.197 1612.65 716.945 1622.51 716.031 1629.47C715.573 1632.94 715.2 1635.69 714.942 1637.56C714.93 1637.65 714.918 1637.73 714.907 1637.81L510.629 1691.98L262.967 1641.62C262.966 1641.62 262.965 1641.61 262.964 1641.61C262.659 1639.86 262.216 1637.31 261.668 1634.1C260.573 1627.69 259.057 1618.66 257.379 1608.19C254.019 1587.23 250.014 1560.54 247.409 1537.51C244.793 1514.39 241.438 1484.31 239.112 1459.89C237.949 1447.67 237.047 1436.92 236.623 1429.18C236.41 1425.29 236.323 1422.26 236.371 1420.2C236.376 1420 236.382 1419.81 236.389 1419.64C236.719 1419.53 237.084 1419.42 237.484 1419.3C239.459 1418.69 242.27 1417.83 245.797 1416.75C252.851 1414.59 262.764 1411.55 274.576 1407.94C298.2 1400.72 329.419 1391.18 360.544 1381.67C391.668 1372.16 422.7 1362.68 445.949 1355.58C457.574 1352.03 467.254 1349.08 474.027 1347.01L481.888 1344.61ZM236.527 1418.1C236.527 1418.1 236.526 1418.1 236.523 1418.11C236.525 1418.1 236.527 1418.1 236.527 1418.1Z" fill="#FFC692" stroke="#CAAD96" stroke-width="8"/>
<path d="M679.354 1801.53L679.078 1802.24V1802.99V2422.09L563.17 2449.89C563.215 2448.49 563.267 2446.84 563.326 2444.94C563.529 2438.42 563.811 2429.05 564.124 2417.63C564.749 2394.8 565.499 2363.8 566 2331.12C566.997 2265.98 567.017 2193.57 562.956 2166.41C562.235 2161.59 561.418 2155.74 560.486 2149.06C556.271 2118.87 549.692 2071.75 538.955 2026.39C532.396 1998.68 524.248 1971.45 514.056 1949C503.93 1926.68 491.494 1908.43 475.991 1899.53C446.759 1882.75 412.83 1872.37 386.342 1866.18C373.072 1863.07 361.614 1861.01 353.466 1859.72C349.39 1859.08 346.14 1858.63 343.902 1858.34C343.009 1858.22 342.277 1858.13 341.718 1858.06C341.475 1857.84 341.184 1857.56 340.848 1857.24C339.678 1856.12 337.965 1854.42 335.847 1852.14C331.609 1847.58 325.749 1840.69 319.35 1831.49C306.552 1813.08 291.606 1785.4 283.133 1748.43L283.131 1748.42C275.728 1716.46 270.554 1688.48 267.232 1668.51C265.571 1658.52 264.373 1650.54 263.591 1645.05C263.374 1643.53 263.189 1642.2 263.035 1641.07L715.063 1638.43C714.786 1640.29 714.432 1642.68 714.014 1645.47C712.939 1652.65 711.442 1662.55 709.756 1673.4C706.379 1695.14 702.256 1720.63 699.237 1735.89C696.247 1750.92 691.287 1767.32 687.047 1780.02C684.932 1786.36 683.005 1791.74 681.608 1795.55C680.909 1797.45 680.344 1798.95 679.954 1799.97C679.759 1800.49 679.608 1800.88 679.506 1801.14L679.457 1801.27L679.391 1801.44L679.362 1801.51L679.355 1801.53L679.354 1801.53L679.354 1801.53Z" fill="#FFC692" stroke="#CAAD96" stroke-width="8"/>
<path d="M2173.12 1743.76L2173.12 1743.77C2166.72 1764.81 2157.2 1793.87 2149.27 1817.71C2145.31 1829.62 2141.75 1840.22 2139.17 1847.83C2137.89 1851.64 2136.85 1854.7 2136.13 1856.81C2136.08 1856.97 2136.03 1857.11 2135.98 1857.26C2135.37 1857.24 2134.67 1857.21 2133.89 1857.19C2130.62 1857.11 2125.91 1857.05 2120.12 1857.13C2108.56 1857.28 2092.66 1857.99 2075.33 1860.22C2058.02 1862.45 2039.19 1866.2 2021.81 1872.48C2004.45 1878.76 1988.28 1887.64 1976.57 1900.28C1964.9 1912.86 1954.5 1933.17 1945.21 1957.21C1935.89 1981.35 1927.55 2009.66 1920.19 2038.58C1908.22 2085.58 1898.77 2134.47 1891.91 2170C1890.33 2178.17 1888.88 2185.64 1887.58 2192.22C1880.51 2227.81 1876.13 2289.97 1873.5 2342.99C1872.19 2369.55 1871.31 2393.91 1870.77 2411.62C1870.49 2420.48 1870.3 2427.67 1870.18 2432.66C1870.14 2434.14 1870.11 2435.42 1870.09 2436.5H1787.23V2089.36V2089.33L1790.27 1826.66L1790.27 1826.17L1790.16 1825.7L1786.27 1826.61C1790.16 1825.7 1790.16 1825.7 1790.16 1825.7L1790.16 1825.69L1790.16 1825.69L1790.15 1825.65L1790.12 1825.51L1789.99 1824.95C1789.87 1824.45 1789.7 1823.72 1789.48 1822.78C1789.03 1820.89 1788.39 1818.15 1787.57 1814.7C1785.94 1807.82 1783.63 1798.16 1780.94 1787.04C1775.56 1764.82 1768.63 1736.78 1762.46 1713.54C1757.51 1694.5 1752.72 1671.77 1749.16 1653.76C1747.38 1644.76 1745.92 1636.96 1744.89 1631.41C1744.61 1629.85 1744.35 1628.46 1744.14 1627.28L2202.12 1630.09C2201.85 1631.42 2201.52 1633.01 2201.13 1634.85C2199.85 1640.95 2197.94 1649.76 2195.41 1660.57C2190.36 1682.19 2182.88 1711.8 2173.12 1743.76Z" fill="#FFC692" stroke="#CAAD96" stroke-width="8"/>
<path d="M1822.31 1539.12L1822.31 1539.1L1822.31 1539.08C1821.47 1515.02 1821.13 1485.04 1821.13 1441.17V1440.91V1440.66V1440.4V1440.14V1439.89V1439.63V1439.38V1439.12V1438.87V1438.61V1438.36V1438.1V1437.85V1437.6V1437.34V1437.09V1436.84V1436.58V1436.33V1436.08V1435.83V1435.58V1435.33V1435.08V1434.83V1434.57V1434.32V1434.08V1433.83V1433.58V1433.33V1433.08V1432.83V1432.58V1432.34V1432.09V1431.84V1431.59V1431.35V1431.1V1430.85V1430.61V1430.36V1430.12V1429.87V1429.63V1429.39V1429.14V1428.9V1428.65V1428.41V1428.17V1427.93V1427.68V1427.44V1427.2V1426.96V1426.72V1426.48V1426.24V1426V1425.76V1425.52V1425.28V1425.04V1424.8V1424.57V1424.33V1424.09V1423.85V1423.62V1423.38V1423.14V1422.91V1422.67V1422.44V1422.2V1421.97V1421.73V1421.5V1421.27V1421.03V1420.8V1420.57V1420.34V1420.11V1419.87V1419.64V1419.41V1419.18V1418.95V1418.72V1418.49V1418.26V1418.03V1417.81V1417.58V1417.35V1417.12V1416.9V1416.67V1416.44V1416.22V1415.99V1415.77V1415.54V1415.32V1415.09V1414.87V1414.65V1414.42V1414.2V1413.98V1413.76V1413.53V1413.31V1413.09V1412.87V1412.65V1412.43V1412.21V1411.99V1411.78V1411.56V1411.34V1411.12V1410.9V1410.69V1410.47V1410.26V1410.04V1409.82V1409.61V1409.4V1409.18V1408.97V1408.75V1408.54V1408.33V1408.12V1407.9V1407.69V1407.48V1407.27V1407.06V1406.85V1406.64V1406.43V1406.23V1406.02V1405.81V1405.6V1405.39V1405.19V1404.98V1404.78V1404.57V1404.37V1404.16V1403.96V1403.75V1403.55V1403.35V1403.14V1402.94V1402.74V1402.54V1402.34V1402.14V1401.94V1401.74V1401.54V1401.34V1401.14V1400.94V1400.75V1400.55V1400.35V1400.16V1399.96V1399.77V1399.57V1399.38V1399.18V1398.99V1398.8V1398.6V1398.41V1398.22V1398.03V1397.84V1397.65V1397.46V1397.27V1397.08V1396.89V1396.7V1396.51V1396.32V1396.14V1395.95V1395.76V1395.58V1395.39V1395.21V1395.02V1394.84V1394.66V1394.47V1394.29V1394.11V1393.93V1393.75V1393.57V1393.39V1393.21V1393.03V1392.85V1392.67V1392.49V1392.31V1392.14V1391.96V1391.79V1391.61V1391.43V1391.26V1391.09V1390.91V1390.74V1390.57V1390.39V1390.22V1390.05V1389.88V1389.71V1389.54V1389.37V1389.2V1389.03V1388.87V1388.7V1388.53V1388.37V1388.2V1388.03V1387.87V1387.7V1387.54V1387.38V1387.21V1387.05V1386.89V1386.73V1386.57V1386.41V1386.25V1386.09V1385.93V1385.77V1385.61V1385.46V1385.3V1385.14V1384.99V1384.83V1384.68V1384.52V1384.37V1384.21V1384.06V1383.91V1383.76V1383.61V1383.46V1383.31V1383.16V1383.01V1382.86V1382.71V1382.56V1382.41V1382.27V1382.12V1381.98V1381.83V1381.69V1381.54V1381.4V1381.26V1381.11V1380.97V1380.83V1380.69V1380.55V1380.41V1380.27V1380.13V1380V1379.86V1379.72V1379.59V1379.45V1379.31V1379.18V1379.05V1378.91V1378.78V1378.65V1378.51V1378.38V1378.25V1378.12V1377.99V1377.86V1377.73V1377.61V1377.48V1377.35V1377.23V1377.1V1376.97V1376.85V1376.73V1376.6V1376.48V1376.36V1376.24V1376.11V1375.99V1375.87V1375.75V1375.63V1375.52V1375.4V1375.28V1375.16V1375.05V1374.93V1374.82V1374.7V1374.59V1374.48V1374.36V1374.25V1374.14V1374.03V1373.92V1373.81V1373.7V1373.59V1373.49V1373.38V1373.27V1373.17V1373.06V1372.95V1372.85V1372.75V1372.64V1372.54V1372.44V1372.34V1372.24V1372.14V1372.04V1371.94V1371.84V1371.74V1371.65V1371.55V1371.45V1371.36V1371.26V1371.17V1371.08V1370.99V1370.89V1370.8V1370.71V1370.62V1370.53V1370.44V1370.35V1370.27V1370.18V1370.09V1370.01V1369.92V1369.84V1369.75V1369.67V1369.59V1369.51V1369.42V1369.34V1369.26V1369.18V1369.1V1369.03V1368.95V1368.87V1368.8V1368.72V1368.65V1368.57V1368.5V1368.47L1861.79 1367.62L1861.83 1370.73C1861.89 1375.28 1861.97 1381.79 1862.08 1389.64C1862.28 1405.33 1862.56 1426.38 1862.83 1447.78C1863.38 1490.61 1863.93 1534.78 1863.93 1540.4C1863.93 1545.91 1863.32 1551.91 1860.84 1556.52C1858.55 1560.78 1854.49 1564.23 1846.32 1564.59C1838.83 1564.89 1833.09 1562.61 1829.14 1558.53C1825.14 1554.39 1822.55 1547.94 1822.31 1539.12Z" fill="white" stroke="#CAAD96" stroke-width="8"/>
<path d="M2003.91 1362.45C2003.9 1363.29 2003.88 1364.23 2003.86 1365.28C2003.78 1369.99 2003.67 1376.73 2003.53 1384.87C2003.27 1401.14 2002.92 1422.98 2002.6 1445.23C2002.28 1467.49 2002 1490.18 2001.86 1508.15C2001.72 1525.99 2001.71 1539.46 2001.98 1543.05C2002.88 1555.03 1994.81 1566.93 1982.51 1566.93C1976.13 1566.93 1971.07 1564.18 1967.55 1559.63C1963.98 1555 1961.89 1548.35 1962.04 1540.65C1962.21 1534.36 1962.21 1490.09 1962.17 1447.5C1962.15 1426.16 1962.11 1405.21 1962.09 1389.59C1962.07 1381.78 1962.06 1375.31 1962.05 1370.78L1962.05 1367.26L2003.91 1362.45Z" fill="white" stroke="#CAAD96" stroke-width="8"/>
<path d="M2128.23 1566.61L2128.23 1566.61C2123.5 1566.95 2120.14 1566.11 2117.7 1564.77C2115.27 1563.44 2113.48 1561.47 2112.17 1559.09C2109.44 1554.18 2108.89 1547.9 2108.89 1543.6C2108.89 1539.15 2109.19 1496.35 2109.48 1454.63C2109.63 1433.78 2109.78 1413.21 2109.89 1397.85C2109.94 1390.17 2109.99 1383.79 2110.02 1379.33L2110.04 1376.42L2146.94 1377.39L2146.92 1379.88C2146.89 1383.97 2146.85 1389.83 2146.8 1396.91C2146.71 1411.06 2146.58 1430.06 2146.46 1449.49C2146.2 1488.34 2145.95 1528.9 2145.95 1535.67C2145.95 1542.31 2145.35 1550.02 2142.71 1556.11C2141.42 1559.1 2139.69 1561.56 2137.44 1563.33C2135.21 1565.08 2132.27 1566.33 2128.23 1566.61Z" fill="white" stroke="#CAAD96" stroke-width="8"/>
<path d="M1720.04 1399.56C1720.35 1398.33 1720.78 1396.89 1721.38 1395.25C1723.77 1388.64 1728.82 1378.72 1739.51 1366.13C1744.75 1360.07 1751.28 1353.55 1758.88 1345.96C1763.64 1341.2 1768.82 1336.03 1774.37 1330.28C1788.63 1315.5 1804.9 1297.37 1821.42 1274.03L1821.43 1274.03C1823.29 1271.38 1825.11 1268.8 1826.89 1266.28C1840.61 1246.88 1851.95 1230.83 1863.06 1210.8C1875.63 1188.13 1887.87 1160.44 1903.1 1116.94C1909.25 1099.4 1914.25 1083.73 1918.64 1069.95C1919.7 1066.64 1920.72 1063.44 1921.71 1060.35C1926.87 1044.31 1931.26 1031.3 1936 1020.99C1940.73 1010.69 1945.65 1003.45 1951.65 998.696C1957.55 994.018 1964.84 991.471 1974.87 991.194C1986.16 990.922 1994.19 994.174 2000.5 1000.03C2006.97 1006.03 2011.93 1015.03 2016.4 1026.8C2020.42 1037.37 2023.91 1049.77 2027.81 1063.66C2028.24 1065.2 2028.68 1066.77 2029.13 1068.35C2033.56 1084.06 2038.59 1101.38 2045.45 1119.41C2095.37 1250.98 2189.33 1349.35 2206.44 1365.43C2214.46 1372.97 2219.82 1381.3 2223.18 1387.77C2224.09 1389.54 2224.86 1391.16 2225.48 1392.59C2223.46 1392.33 2220.97 1392.03 2217.99 1391.7C2208.37 1390.61 2193.68 1389.14 2173.36 1387.6C2132.73 1384.51 2069.57 1381.13 1979.37 1379.95C1889.08 1378.76 1822.86 1384.01 1779.17 1389.56C1757.33 1392.33 1741.12 1395.19 1730.34 1397.35C1726.05 1398.21 1722.62 1398.97 1720.04 1399.56Z" fill="#FFC692" stroke="#CAAD96" stroke-width="8"/>
<path d="M350.266 1391.05L350.328 1393.43C350.443 1397.9 350.608 1404.28 350.806 1411.96C351.201 1427.31 351.729 1447.85 352.256 1468.56C353.312 1510.05 354.364 1552.11 354.364 1554.91C354.364 1557.56 353.995 1563.5 351.573 1568.71C349.266 1573.67 345.242 1577.81 337.467 1578.08C329.246 1578.37 324.44 1575.09 321.437 1570.78C318.268 1566.24 316.938 1560.28 316.623 1555.35C316.289 1549.3 315.237 1509.1 314.267 1470.26C313.781 1450.86 313.317 1431.83 312.975 1417.65C312.803 1410.57 312.662 1404.69 312.564 1400.59L312.493 1397.6L350.266 1391.05Z" fill="white" stroke="#CAAD96" stroke-width="8"/>
<path d="M471.886 1552.84L471.886 1552.83L471.885 1552.82C471.639 1548.3 471.259 1509.01 470.942 1470.63C470.784 1451.49 470.641 1432.63 470.538 1418.57C470.487 1411.53 470.445 1405.7 470.417 1401.62C470.411 1400.72 470.405 1399.91 470.4 1399.19L511.487 1398.63C511.488 1399.34 511.489 1400.15 511.49 1401.03C511.496 1405.15 511.504 1411.04 511.516 1418.13C511.54 1432.31 511.577 1451.32 511.63 1470.59C511.735 1509.01 511.902 1548.82 512.164 1553.27L512.164 1553.28C512.466 1558.32 511.418 1564.76 508.353 1569.79C505.422 1574.6 500.624 1578.23 492.699 1578.23C484.576 1578.23 479.793 1574.97 476.785 1570.47C473.607 1565.72 472.207 1559.26 471.886 1552.84Z" fill="white" stroke="#CAAD96" stroke-width="8"/>
<path d="M622.118 1400.69L661.514 1402.93C661.514 1403.59 661.514 1404.34 661.514 1405.16C661.512 1408.99 661.51 1414.49 661.504 1421.14C661.494 1434.43 661.473 1452.33 661.431 1470.74C661.346 1507.63 661.177 1546.42 660.843 1554.59C660.516 1562.6 659.045 1568.38 656.197 1572.11C653.545 1575.58 649.195 1577.92 641.382 1577.92C634.482 1577.92 630.098 1574.89 627.26 1570.48C624.287 1565.85 622.937 1559.51 622.937 1553.23C622.937 1548.24 622.726 1509.02 622.515 1471.08C622.41 1452.11 622.304 1433.45 622.225 1419.53C622.186 1412.57 622.153 1406.79 622.13 1402.76L622.118 1400.69Z" fill="white" stroke="#CAAD96" stroke-width="8"/>
<path d="M236.755 1419.39C236.452 1419.43 236.163 1419.46 235.888 1419.49C235.915 1417.98 236.109 1416.01 236.694 1413.64C238.216 1407.48 242.446 1398.4 253.753 1387.9C267.649 1375.04 315.153 1319.82 360.197 1236.67C375.833 1207.81 389.535 1171.88 402.631 1137.54C408.443 1122.3 414.136 1107.37 419.826 1093.51C429.158 1070.78 438.462 1050.94 448.295 1036.8C458.25 1022.47 467.98 1015.09 477.892 1014.99C487.933 1014.88 497.788 1021.55 507.921 1034.7C517.972 1047.74 527.614 1066.29 537.359 1088C544.668 1104.28 551.953 1122.15 559.473 1140.6C561.965 1146.72 564.483 1152.9 567.037 1159.1C577.269 1183.96 588.04 1209.18 599.853 1232.04L599.854 1232.04C640.512 1310.62 690.667 1365.87 706.136 1382.92C706.945 1383.81 707.659 1384.59 708.272 1385.27C716.866 1394.83 721.822 1405.06 724.627 1412.91C725.697 1415.9 726.45 1418.54 726.971 1420.64C723.902 1420.19 719.626 1419.59 714.229 1418.88C702.302 1417.3 684.901 1415.22 662.971 1413.17C619.115 1409.07 557.128 1405.09 484.572 1405.6C412.062 1406.11 348.893 1409.7 303.847 1413.16C281.323 1414.89 263.327 1416.6 250.956 1417.86C244.77 1418.5 239.991 1419.03 236.755 1419.39Z" fill="#FFC692" stroke="#CAAD96" stroke-width="8"/>
<path d="M960.841 2468.4C960.841 2468.4 954.428 2204.97 991.049 2114.68C1030.03 2018.65 1085.05 1966.84 1121.84 1926.85C1158.8 1886.68 1221.07 1831.83 1241.15 1829.81C1261.57 1827.61 1326.71 1889.89 1377.34 1942.71C1425.44 1992.83 1486.02 2046.16 1511.34 2135.77C1530.24 2202.6 1524.33 2466.04 1524.33 2466.04L960.841 2468.4Z" fill="#6F6A67"/>
<path d="M1241.34 1893.1C1231.72 1893.1 1068.19 2027.77 1037.99 2149.28C1013.85 2246.83 1018.58 2468.24 1018.58 2468.24L1473.72 2466.21C1473.72 2466.21 1486.38 2210.71 1454.15 2132.41C1403.69 2009.72 1250.96 1893.1 1241.34 1893.1Z" fill="white"/>
<g filter="url(#filter0_d_901_238)">
<path d="M113.183 2415.09C95.3686 2424.28 58.5 2456 43.6873 2469.34C56.3025 2469.34 2548.04 2470.71 2560 2469.34C2548.65 2454.2 2517.24 2420.77 2500.48 2415.09C2465.28 2403.17 2431.68 2385.61 2398.81 2368.19C2373.48 2354.77 2346.57 2350.63 2318.37 2348.5C2211.94 2340.45 2105.09 2335.24 1998.41 2333.97C1953.57 2333.44 1901.39 2332.27 1858.29 2317.62C1844.15 2312.81 1836.26 2309.13 1820.65 2307.77C1746.95 2301.33 1671.97 2308.5 1598 2304.1C1542.76 2300.81 1487.67 2299.84 1432.31 2302.93C1384.5 2305.6 1336.54 2308.98 1289.14 2316.12C1265.07 2319.74 1241.6 2327.11 1217.39 2329.47C1163.86 2334.69 1109.88 2336.87 1056.84 2327.47C1030.92 2322.87 1007.89 2312.45 982.84 2304.77C961.921 2298.35 938.932 2301.95 917.528 2303.26C870.917 2306.13 824.596 2311.87 778.054 2315.45C718.996 2319.99 658.454 2312.2 599.168 2313.45C531.667 2314.87 466.075 2326.84 399.208 2334.14C382.876 2335.93 366.056 2337.99 349.66 2335.81C341.673 2334.75 333.942 2331.35 325.851 2331.14C318.699 2330.95 310.099 2336.73 304.295 2339.48C269.732 2355.88 254.637 2351.25 220.322 2368.19C185.677 2385.29 147.547 2397.37 113.183 2415.09Z" fill="#FFC692"/>
<path d="M113.183 2415.09C95.3686 2424.28 58.5 2456 43.6873 2469.34C56.3025 2469.34 2548.04 2470.71 2560 2469.34C2548.65 2454.2 2517.24 2420.77 2500.48 2415.09C2465.28 2403.17 2431.68 2385.61 2398.81 2368.19C2373.48 2354.77 2346.57 2350.63 2318.37 2348.5C2211.94 2340.45 2105.09 2335.24 1998.41 2333.97C1953.57 2333.44 1901.39 2332.27 1858.29 2317.62C1844.15 2312.81 1836.26 2309.13 1820.65 2307.77C1746.95 2301.33 1671.97 2308.5 1598 2304.1C1542.76 2300.81 1487.67 2299.84 1432.31 2302.93C1384.5 2305.6 1336.54 2308.98 1289.14 2316.12C1265.07 2319.74 1241.6 2327.11 1217.39 2329.47C1163.86 2334.69 1109.88 2336.87 1056.84 2327.47C1030.92 2322.87 1007.89 2312.45 982.84 2304.77C961.921 2298.35 938.932 2301.95 917.528 2303.26C870.917 2306.13 824.596 2311.87 778.054 2315.45C718.996 2319.99 658.454 2312.2 599.168 2313.45C531.667 2314.87 466.075 2326.84 399.208 2334.14C382.876 2335.93 366.056 2337.99 349.66 2335.81C341.673 2334.75 333.942 2331.35 325.851 2331.14C318.699 2330.95 310.099 2336.73 304.295 2339.48C269.732 2355.88 254.637 2351.25 220.322 2368.19C185.677 2385.29 147.547 2397.37 113.183 2415.09Z" stroke="#CAAD96" stroke-width="8" stroke-linecap="round"/>
</g>
<defs>
<filter id="filter0_d_901_238" x="29.266" y="2297.05" width="2542.11" height="184.894" filterUnits="userSpaceOnUse" color-interpolation-filters="sRGB">
<feFlood flood-opacity="0" result="BackgroundImageFix"/>
<feColorMatrix in="SourceAlpha" type="matrix" values="0 0 0 0 0 0 0 0 0 0 0 0 0 0 0 0 0 0 127 0" result="hardAlpha"/>
<feOffset dy="4"/>
<feGaussianBlur stdDeviation="2"/>
<feComposite in2="hardAlpha" operator="out"/>
<feColorMatrix type="matrix" values="0 0 0 0 0 0 0 0 0 0 0 0 0 0 0 0 0 0 0.25 0"/>
<feBlend mode="normal" in2="BackgroundImageFix" result="effect1_dropShadow_901_238"/>
<feBlend mode="normal" in="SourceGraphic" in2="effect1_dropShadow_901_238" result="shape"/>
</filter>
</defs>
</svg>
