<?xml version="1.0" encoding="utf-8"?>
<!-- Generator: Adobe Illustrator 25.4.1, SVG Export Plug-In . SVG Version: 6.00 Build 0)  -->
<svg version="1.1" id="Layer_1" xmlns="http://www.w3.org/2000/svg" xmlns:xlink="http://www.w3.org/1999/xlink" x="0px" y="0px"
	 viewBox="0 0 1920 1080" style="enable-background:new 0 0 1920 1080;" xml:space="preserve">
<style type="text/css">
	.st0{fill:#4285F4;}
	.st1{fill:#8AB4F8;}
	.st2{fill:#EAEAEA;}
	.st3{fill:#D8D8D8;}
	.st4{fill:#BFE2F7;}
	.st5{fill:#96EAC0;}
</style>
<g>
	<rect x="793.5" y="316.7" class="st0" width="53.6" height="53.6"/>
	<rect x="847.2" y="316.7" class="st1" width="53.6" height="53.6"/>
	<rect x="900.8" y="316.7" class="st2" width="53.6" height="53.6"/>
	<rect x="954.4" y="316.7" class="st3" width="53.6" height="53.6"/>
	<rect x="1008.1" y="316.7" class="st2" width="53.6" height="53.6"/>
	
		<rect x="1008.1" y="477.6" transform="matrix(-1 -1.224647e-16 1.224647e-16 -1 2069.7808 1008.8195)" class="st3" width="53.6" height="53.6"/>
	
		<rect x="954.4" y="477.6" transform="matrix(-1 -1.224647e-16 1.224647e-16 -1 1962.507 1008.8195)" class="st2" width="53.6" height="53.6"/>
	
		<rect x="900.8" y="477.6" transform="matrix(-1 -1.224647e-16 1.224647e-16 -1 1855.2332 1008.8195)" class="st3" width="53.6" height="53.6"/>
	
		<rect x="847.2" y="477.6" transform="matrix(-1 -1.224647e-16 1.224647e-16 -1 1747.9594 1008.8195)" class="st1" width="53.6" height="53.6"/>
	
		<rect x="793.5" y="475.6" transform="matrix(-1 -1.224647e-16 1.224647e-16 -1 1640.6854 1004.8367)" class="st0" width="53.6" height="53.6"/>
	<rect x="847.2" y="529.2" class="st3" width="53.6" height="53.6"/>
	<rect x="900.8" y="529.2" class="st2" width="53.6" height="53.6"/>
	<rect x="954.4" y="529.2" class="st3" width="53.6" height="53.6"/>
	<rect x="920.4" y="182.3" class="st4" width="53.6" height="53.6"/>
	<rect x="1008.1" y="145.5" class="st5" width="53.6" height="53.6"/>
	<rect x="847.2" y="209.1" class="st3" width="53.6" height="53.6"/>
	<rect x="793.5" y="262.9" class="st0" width="53.6" height="266.3"/>
	<rect x="739.9" y="316.7" class="st0" width="53.6" height="53.6"/>
	
		<rect x="997.2" y="235.8" transform="matrix(-1 -3.464103e-07 3.464103e-07 -1 2047.9471 525.257)" class="st2" width="53.6" height="53.6"/>
	
		<rect x="1050.8" y="235.8" transform="matrix(-1 -3.464103e-07 3.464103e-07 -1 2155.2209 525.2571)" class="st3" width="53.6" height="53.6"/>
	
		<rect x="1111" y="298.6" transform="matrix(-1 -3.464101e-07 3.464101e-07 -1 2275.6106 650.7975)" class="st3" width="53.6" height="53.6"/>
	
		<rect x="900.8" y="262.9" transform="matrix(-1 -3.464101e-07 3.464101e-07 -1 1855.233 579.4235)" class="st3" width="53.6" height="53.6"/>
	
		<rect x="847.2" y="262.9" transform="matrix(-1 -3.464103e-07 3.464103e-07 -1 1747.9592 579.4235)" class="st2" width="53.6" height="53.6"/>
	<rect x="954.4" y="370.3" class="st2" width="53.6" height="53.6"/>
	<rect x="1008.1" y="370.3" class="st2" width="53.6" height="53.6"/>
	<rect x="1061.7" y="370.3" class="st3" width="53.6" height="53.6"/>
	<rect x="739.9" y="316.7" class="st0" width="101.8" height="160.9"/>
	<rect x="793.5" y="370.3" class="st0" width="53.6" height="158.9"/>
	<rect x="847.2" y="370.3" class="st5" width="53.6" height="53.6"/>
	<rect x="900.8" y="370.3" class="st3" width="53.6" height="53.6"/>
	<rect x="820.3" y="781.9" class="st0" width="53.6" height="53.6"/>
	<rect x="874" y="781.9" class="st1" width="53.6" height="53.6"/>
	<rect x="927.6" y="781.9" class="st2" width="53.6" height="53.6"/>
	<rect x="981.3" y="781.9" class="st3" width="53.6" height="53.6"/>
	<rect x="927.6" y="674.6" class="st2" width="53.6" height="53.6"/>
	<rect x="1034.9" y="674.6" class="st2" width="53.6" height="53.6"/>
	<rect x="981.3" y="674.6" class="st3" width="53.6" height="53.6"/>
	<rect x="874" y="674.6" class="st4" width="53.6" height="53.6"/>
	<rect x="820.3" y="674.6" class="st5" width="53.6" height="53.6"/>
	<rect x="766.7" y="674.6" class="st0" width="53.6" height="73.8"/>
	<rect x="820.3" y="728.3" class="st1" width="53.6" height="53.6"/>
	<rect x="713.1" y="728.3" class="st0" width="103.5" height="214.5"/>
	<rect x="766.7" y="781.9" class="st0" width="53.6" height="53.6"/>
	
		<rect x="927.7" y="728.2" transform="matrix(-1 -3.464101e-07 3.464101e-07 -1 1908.9443 1509.9513)" class="st3" width="53.6" height="53.6"/>
	
		<rect x="1034.9" y="728.2" transform="matrix(-1 -3.464101e-07 3.464101e-07 -1 2123.4922 1509.9514)" class="st3" width="53.6" height="53.6"/>
	
		<rect x="981.3" y="728.2" transform="matrix(-1 -3.464103e-07 3.464103e-07 -1 2016.2183 1509.9513)" class="st2" width="53.6" height="53.6"/>
	
		<rect x="1034.9" y="781.9" transform="matrix(-1 -3.464099e-07 3.464099e-07 -1 2123.4167 1617.4509)" class="st2" width="53.6" height="53.6"/>
	
		<rect x="874" y="728.2" transform="matrix(-1 -3.464105e-07 3.464105e-07 -1 1801.6708 1509.9512)" class="st2" width="53.6" height="53.6"/>
	
		<rect x="766.7" y="728.3" transform="matrix(-1 -3.464105e-07 3.464105e-07 -1 1587.048 1510.177)" class="st0" width="53.6" height="53.6"/>
	<rect x="927.6" y="835.5" class="st3" width="53.6" height="53.6"/>
	<rect x="981.3" y="835.5" class="st3" width="53.6" height="53.6"/>
	<rect x="1034.9" y="835.5" class="st3" width="53.6" height="53.6"/>
	<rect x="766.7" y="835.5" class="st0" width="53.6" height="53.6"/>
	<rect x="820.3" y="835.5" class="st0" width="53.6" height="53.6"/>
	<rect x="874" y="835.5" class="st2" width="53.6" height="53.6"/>
	
		<rect x="713.1" y="781.9" transform="matrix(-1 -3.464099e-07 3.464099e-07 -1 1479.774 1617.4508)" class="st0" width="53.6" height="53.6"/>
	<rect x="713.1" y="835.5" class="st0" width="53.6" height="53.6"/>
	<rect x="1195.8" y="835.5" class="st2" width="53.6" height="53.6"/>
	<rect x="659.4" y="781.9" class="st0" width="214.5" height="153.3"/>
	<rect x="659.4" y="835.5" class="st0" width="53.6" height="53.6"/>
	
		<rect x="1142.2" y="781.9" transform="matrix(-1 -3.464099e-07 3.464099e-07 -1 2337.9646 1617.4509)" class="st2" width="53.6" height="53.6"/>
	
		<rect x="1088.5" y="728.2" transform="matrix(-1 -3.464101e-07 3.464101e-07 -1 2230.6152 1510.1017)" class="st2" width="53.6" height="53.6"/>
	<rect x="1142.2" y="835.5" class="st2" width="53.6" height="53.6"/>
	<rect x="1088.5" y="781.9" class="st2" width="53.6" height="53.6"/>
	<rect x="1088.5" y="835.5" class="st2" width="53.6" height="53.6"/>
	<rect x="927.6" y="889.2" class="st2" width="53.6" height="53.6"/>
	<rect x="981.3" y="835.5" class="st3" width="53.6" height="107.3"/>
	<rect x="1034.9" y="835.5" class="st3" width="53.6" height="107.3"/>
	<rect x="766.7" y="889.2" class="st0" width="53.6" height="53.6"/>
	<rect x="820.3" y="889.2" class="st0" width="53.6" height="53.6"/>
	<rect x="874" y="889.2" class="st3" width="53.6" height="53.6"/>
	<rect x="713.1" y="889.2" class="st0" width="53.6" height="53.6"/>
	<rect x="605.8" y="889.2" class="st0" width="53.6" height="53.6"/>
	<rect x="1195.8" y="889.2" class="st3" width="53.6" height="53.6"/>
	<rect x="659.4" y="889.2" class="st0" width="53.6" height="53.6"/>
	<rect x="1142.2" y="889.2" class="st2" width="53.6" height="53.6"/>
	<rect x="981.3" y="889" class="st3" width="160.9" height="53.8"/>
	
		<rect x="900.8" y="424" transform="matrix(-1 -1.224647e-16 1.224647e-16 -1 1855.2332 901.5457)" class="st2" width="53.6" height="53.6"/>
	
		<rect x="847.2" y="424" transform="matrix(-1 -1.224647e-16 1.224647e-16 -1 1747.9594 901.5457)" class="st4" width="53.6" height="53.6"/>
	
		<rect x="739.9" y="424" transform="matrix(-1 -1.224647e-16 1.224647e-16 -1 1533.4116 901.5457)" class="st0" width="53.6" height="53.6"/>
	
		<rect x="1061.3" y="423.6" transform="matrix(-1 -1.224647e-16 1.224647e-16 -1 2176.2961 900.7872)" class="st2" width="53.6" height="53.6"/>
	
		<rect x="1008.1" y="424" transform="matrix(-1 -1.224647e-16 1.224647e-16 -1 2069.7808 901.5457)" class="st2" width="53.6" height="53.6"/>
	
		<rect x="954.4" y="424" transform="matrix(-1 -1.224647e-16 1.224647e-16 -1 1962.507 901.5457)" class="st3" width="53.6" height="53.6"/>
	<rect x="605.8" y="835.5" class="st0" width="268.2" height="107.3"/>
</g>
</svg>
